<mxfile host="app.diagrams.net" agent="Mozilla/5.0 (Windows NT 10.0; Win64; x64) AppleWebKit/537.36 (KHTML, like Gecko) Chrome/140.0.0.0 Safari/537.36" version="28.2.4">
  <diagram name="Страница — 1" id="fdAAvbpkRccRgPy-pfXk">
    <mxGraphModel dx="595" dy="345" grid="1" gridSize="10" guides="1" tooltips="1" connect="1" arrows="1" fold="1" page="1" pageScale="1" pageWidth="827" pageHeight="1169" math="0" shadow="0">
      <root>
        <mxCell id="0" />
        <mxCell id="1" parent="0" />
        <mxCell id="a6HLMUm0zNCOVba3PdS5-1" value="&lt;font style=&quot;font-size: 20px;&quot;&gt;Регистр&amp;nbsp;&lt;/font&gt;&lt;div&gt;&lt;font style=&quot;font-size: 20px;&quot;&gt;захвата/сравнения&lt;/font&gt;&lt;/div&gt;" style="rounded=0;whiteSpace=wrap;html=1;strokeWidth=1.9685;" vertex="1" parent="1">
          <mxGeometry x="125.44000000000005" y="350.15999999999997" width="201.97" height="80.94" as="geometry" />
        </mxCell>
        <mxCell id="a6HLMUm0zNCOVba3PdS5-2" value="&lt;font style=&quot;font-size: 20px;&quot;&gt;CNT&lt;/font&gt;" style="rounded=0;whiteSpace=wrap;html=1;" vertex="1" parent="1">
          <mxGeometry x="120" y="160" width="202.43" height="69.76" as="geometry" />
        </mxCell>
        <mxCell id="a6HLMUm0zNCOVba3PdS5-3" value="" style="shape=flexArrow;endArrow=classic;html=1;rounded=0;endWidth=60.24340770791075;endSize=15.013793103448275;width=46.20689655172414;" edge="1" parent="1">
          <mxGeometry width="50" height="50" relative="1" as="geometry">
            <mxPoint x="221.57000000000016" y="229.54999999999995" as="sourcePoint" />
            <mxPoint x="221.8900000000001" y="350.15999999999997" as="targetPoint" />
          </mxGeometry>
        </mxCell>
        <mxCell id="a6HLMUm0zNCOVba3PdS5-5" value="&lt;span style=&quot;font-size: 20px;&quot;&gt;Генератор опорного сигнала&lt;/span&gt;" style="rounded=0;whiteSpace=wrap;html=1;strokeWidth=1.9685;" vertex="1" parent="1">
          <mxGeometry x="420" y="350.15999999999997" width="201.97" height="80.94" as="geometry" />
        </mxCell>
        <mxCell id="a6HLMUm0zNCOVba3PdS5-6" value="" style="endArrow=classic;html=1;rounded=0;" edge="1" parent="1">
          <mxGeometry width="50" height="50" relative="1" as="geometry">
            <mxPoint x="621.97" y="390" as="sourcePoint" />
            <mxPoint x="690" y="390" as="targetPoint" />
          </mxGeometry>
        </mxCell>
        <mxCell id="a6HLMUm0zNCOVba3PdS5-8" value="" style="endArrow=classic;html=1;rounded=0;entryX=0;entryY=0.5;entryDx=0;entryDy=0;" edge="1" parent="1" target="a6HLMUm0zNCOVba3PdS5-5">
          <mxGeometry width="50" height="50" relative="1" as="geometry">
            <mxPoint x="327.41" y="390.29" as="sourcePoint" />
            <mxPoint x="395.44" y="390.29" as="targetPoint" />
          </mxGeometry>
        </mxCell>
        <mxCell id="a6HLMUm0zNCOVba3PdS5-9" value="&lt;font style=&quot;font-size: 20px;&quot;&gt;TIM_CH&lt;/font&gt;" style="text;html=1;align=center;verticalAlign=middle;whiteSpace=wrap;rounded=0;" vertex="1" parent="1">
          <mxGeometry x="710" y="375.63" width="60" height="30" as="geometry" />
        </mxCell>
      </root>
    </mxGraphModel>
  </diagram>
</mxfile>
